<svg xmlns="http://www.w3.org/2000/svg" width="174.34375" height="28" viewBox="0 0 174.34375 28" role="img" aria-label="Allrice Workspace"><title>Allrice Workspace</title><desc>Allrice Workspace v2. Outlined lettering. Pure gold #F2BD16, no gradients. No external font dependencies.</desc><g id="rice-star" transform="scale(0.0546875)"><path id="grain-0" fill="#F8F6EF" d="M256 12C214 69 214 182 256 228C298 182 298 69 256 12Z"/><path id="grain-1" fill="#F8F6EF" d="M112 118C154 125 191 161 202 209C158 200 123 164 112 118Z"/><path id="grain-2" fill="#F8F6EF" d="M14 258C66 218 161 218 216 258C161 298 66 298 14 258Z"/><path id="grain-3" fill="#F8F6EF" d="M111 396C123 351 158 316 202 307C192 351 158 385 111 396Z"/><path id="grain-4" fill="#F8F6EF" d="M256 494C214 438 214 330 256 286C298 330 298 438 256 494Z"/><path id="grain-5" fill="#F8F6EF" d="M399 397C354 385 320 351 310 307C354 317 389 353 399 397Z"/><path id="grain-6" fill="#F8F6EF" d="M498 258C446 218 351 218 296 258C351 298 446 298 498 258Z"/><path id="grain-7" fill="#F2BD16" d="M411 110C359 119 315 164 300 219C350 209 395 164 411 110Z"/></g><g id="allrice-wordmark"><path id="wordmark-0" fill="#F8F6EF" transform="translate(34 22.5) scale(0.01220703125 -0.01220703125)" d="M357 738 102 784Q145 938 250.0 1012.0Q355 1086 562 1086Q750 1086 842.0 1041.5Q934 997 971.5 928.5Q1009 860 1009 677L1006 349Q1006 209 1019.5 142.5Q1033 76 1070 0H792Q781 28 765 83Q758 108 755 116Q683 46 601.0 11.0Q519 -24 426 -24Q262 -24 167.5 65.0Q73 154 73 290Q73 380 116.0 450.5Q159 521 236.5 558.5Q314 596 460 624Q657 661 733 693V721Q733 802 693.0 836.5Q653 871 542 871Q467 871 425.0 841.5Q383 812 357 738ZM733 510Q679 492 562.0 467.0Q445 442 409 418Q354 379 354 319Q354 260 398.0 217.0Q442 174 510 174Q586 174 655 224Q706 262 722 317Q733 353 733 454Z"/><path id="wordmark-1" fill="#F8F6EF" transform="translate(46.515625 22.5) scale(0.01220703125 -0.01220703125)" d="M147 0V1466H428V0Z"/><path id="wordmark-2" fill="#F8F6EF" transform="translate(52.09375 22.5) scale(0.01220703125 -0.01220703125)" d="M147 0V1466H428V0Z"/><path id="wordmark-3" fill="#F8F6EF" transform="translate(57.65625 22.5) scale(0.01220703125 -0.01220703125)" d="M416 0H135V1062H396V911Q463 1018 516.5 1052.0Q570 1086 638 1086Q734 1086 823 1033L736 788Q665 834 604 834Q545 834 504.0 801.5Q463 769 439.5 684.0Q416 599 416 328Z"/><path id="wordmark-4" fill="#F8F6EF" transform="translate(66.03125 22.5) scale(0.01220703125 -0.01220703125)" d="M147 0V1062H428V0Z"/><path id="wordmark-5" fill="#F8F6EF" transform="translate(71.609375 22.5) scale(0.01220703125 -0.01220703125)" d="M1073 748 796 698Q782 781 732.5 823.0Q683 865 604 865Q499 865 436.5 792.5Q374 720 374 550Q374 361 437.5 283.0Q501 205 608 205Q688 205 739.0 250.5Q790 296 811 407L1087 360Q1044 170 922.0 73.0Q800 -24 595 -24Q362 -24 223.5 123.0Q85 270 85 530Q85 793 224.0 939.5Q363 1086 600 1086Q794 1086 908.5 1002.5Q1023 919 1073 748Z"/><path id="wordmark-6" fill="#F8F6EF" transform="translate(84.125 22.5) scale(0.01220703125 -0.01220703125)" d="M762 338 1042 291Q988 137 871.5 56.5Q755 -24 580 -24Q303 -24 170 157Q65 302 65 523Q65 787 203.0 936.5Q341 1086 552 1086Q789 1086 926.0 929.5Q1063 773 1057 450H353Q356 325 421.0 255.5Q486 186 583 186Q649 186 694.0 222.0Q739 258 762 338ZM778 622Q775 744 715.0 807.5Q655 871 569 871Q477 871 417 804Q357 737 358 622Z"/><path id="gold-i-dot" fill="#F2BD16" transform="translate(66.5625 0.75) scale(0.28125 0.2708333333333333)" d="M15 1C5 3 0 12 1 23C11 21 16 12 15 1Z"/></g><g id="workspace-descriptor"><rect id="workspace-badge" x="103.171875" y="5.5" width="70.671875" height="17" rx="2.5" fill="#F8F6EF" fill-opacity=".03" stroke="#F8F6EF" stroke-opacity=".22" stroke-width="1"/><path id="workspace-letter-0" fill="#F8F6EF" transform="translate(107.671875 16.5) scale(0.00439453125 -0.00439453125)" d="M357 0 7 1466H310L531 459L799 1466H1151L1408 442L1633 1466H1931L1575 0H1261L969 1096L678 0Z"/><path id="workspace-letter-1" fill="#F8F6EF" transform="translate(116.46875 16.5) scale(0.00439453125 -0.00439453125)" d="M89 724Q89 948 156 1100Q206 1212 292.5 1301.0Q379 1390 482 1433Q619 1491 798 1491Q1122 1491 1316.5 1290.0Q1511 1089 1511 731Q1511 376 1318.0 175.5Q1125 -25 802 -25Q475 -25 282.0 174.5Q89 374 89 724ZM394 734Q394 485 509.0 356.5Q624 228 801 228Q978 228 1091.5 355.5Q1205 483 1205 738Q1205 990 1094.5 1114.0Q984 1238 801 1238Q618 1238 506.0 1112.5Q394 987 394 734Z"/><path id="workspace-letter-2" fill="#F8F6EF" transform="translate(123.796875 16.5) scale(0.00439453125 -0.00439453125)" d="M150 0V1466H773Q1008 1466 1114.5 1426.5Q1221 1387 1285.0 1286.0Q1349 1185 1349 1055Q1349 890 1252.0 782.5Q1155 675 962 647Q1058 591 1120.5 524.0Q1183 457 1289 286L1468 0H1114L900 319Q786 490 744.0 534.5Q702 579 655.0 595.5Q608 612 506 612H446V0ZM446 846H665Q878 846 931.0 864.0Q984 882 1014.0 926.0Q1044 970 1044 1036Q1044 1110 1004.5 1155.5Q965 1201 893 1213Q857 1218 677 1218H446Z"/><path id="workspace-letter-3" fill="#F8F6EF" transform="translate(130.609375 16.5) scale(0.00439453125 -0.00439453125)" d="M153 0V1466H449V815L1047 1466H1445L893 895L1475 0H1092L689 688L449 443V0Z"/><path id="workspace-letter-4" fill="#F8F6EF" transform="translate(137.421875 16.5) scale(0.00439453125 -0.00439453125)" d="M74 477 362 505Q388 360 467.5 292.0Q547 224 682 224Q825 224 897.5 284.5Q970 345 970 426Q970 478 939.5 514.5Q909 551 833 578Q781 596 596 642Q358 701 262 787Q127 908 127 1082Q127 1194 190.5 1291.5Q254 1389 373.5 1440.0Q493 1491 662 1491Q938 1491 1077.5 1370.0Q1217 1249 1224 1047L928 1034Q909 1147 846.5 1196.5Q784 1246 659 1246Q530 1246 457 1193Q410 1159 410 1102Q410 1050 454 1013Q510 966 726.0 915.0Q942 864 1045.5 809.5Q1149 755 1207.5 660.5Q1266 566 1266 427Q1266 301 1196.0 191.0Q1126 81 998.0 27.5Q870 -26 679 -26Q401 -26 252.0 102.5Q103 231 74 477Z"/><path id="workspace-letter-5" fill="#F8F6EF" transform="translate(143.734375 16.5) scale(0.00439453125 -0.00439453125)" d="M149 0V1466H624Q894 1466 976 1444Q1102 1411 1187.0 1300.5Q1272 1190 1272 1015Q1272 880 1223.0 788.0Q1174 696 1098.5 643.5Q1023 591 945 574Q839 553 638 553H445V0ZM445 1218V802H607Q782 802 841.0 825.0Q900 848 933.5 897.0Q967 946 967 1011Q967 1091 920.0 1143.0Q873 1195 801 1208Q748 1218 588 1218Z"/><path id="workspace-letter-6" fill="#F8F6EF" transform="translate(149.390625 16.5) scale(0.00439453125 -0.00439453125)" d="M1471 0H1149L1021 333H435L314 0H0L571 1466H884ZM926 580 724 1124 526 580Z"/><path id="workspace-letter-7" fill="#F8F6EF" transform="translate(156.203125 16.5) scale(0.00439453125 -0.00439453125)" d="M1087 539 1374 448Q1308 208 1154.5 91.5Q1001 -25 765 -25Q473 -25 285.0 174.5Q97 374 97 720Q97 1086 286.0 1288.5Q475 1491 783 1491Q1052 1491 1220 1332Q1320 1238 1370 1062L1077 992Q1051 1106 968.5 1172.0Q886 1238 768 1238Q605 1238 503.5 1121.0Q402 1004 402 742Q402 464 502.0 346.0Q602 228 762 228Q880 228 965.0 303.0Q1050 378 1087 539Z"/><path id="workspace-letter-8" fill="#F8F6EF" transform="translate(163.015625 16.5) scale(0.00439453125 -0.00439453125)" d="M149 0V1466H1236V1218H445V893H1181V646H445V247H1264V0Z"/></g></svg>
